<svg width="50" height="50" viewBox="0 0 50 50" fill="none" xmlns="http://www.w3.org/2000/svg">
<path fill-rule="evenodd" clip-rule="evenodd" d="M6.69172 39.9622C2.82505 35.7193 0.473781 30.1186 0.473781 23.9771C0.473781 10.7347 11.4037 0 24.8859 0C38.3681 0 49.2979 10.7359 49.2979 23.9771C49.2979 33.341 43.8312 41.447 35.864 45.3948C30.8184 48.0202 25.2127 49.3863 19.525 49.3767C12.2924 49.3767 5.57251 47.2147 0 43.5138C0 43.5138 3.73735 43.1059 6.68937 39.961L6.69172 39.9622ZM36.353 35.8451C42.6697 29.5308 42.6697 19.2922 36.353 12.9755C33.5441 10.1582 29.7918 8.48013 25.8193 8.26472C25.7041 5.38794 27.2524 3.44579 27.2595 3.43638V3.43521C22.7011 4.31338 18.5118 6.54114 15.2351 9.82949C12.7035 12.3524 10.7902 15.427 9.64492 18.8125C9.80716 18.3815 9.98859 17.9567 10.1892 17.5381C9.9596 18.126 9.75072 18.7263 9.56262 19.3392C7.71335 24.954 9.0183 31.3801 13.4834 35.8451C19.7989 42.1607 30.0375 42.1607 36.353 35.8451Z" fill="#B557BF"/>
<path fill-rule="evenodd" clip-rule="evenodd" d="M16.709 22.7484V26.0954C16.709 26.7368 16.9638 27.3519 17.4173 27.8054C17.8708 28.2589 18.4859 28.5137 19.1273 28.5137C19.7686 28.5137 20.3837 28.2589 20.8373 27.8054C21.2908 27.3519 21.5456 26.7368 21.5456 26.0954V22.7484C21.5456 22.107 21.2908 21.4919 20.8373 21.0384C20.3837 20.5849 19.7686 20.3301 19.1273 20.3301C18.4859 20.3301 17.8708 20.5849 17.4173 21.0384C16.9638 21.4919 16.709 22.107 16.709 22.7484ZM28.6805 22.7484V26.0954C28.6805 26.7368 28.9353 27.3519 29.3888 27.8054C29.8423 28.2589 30.4574 28.5137 31.0988 28.5137C31.7401 28.5137 32.3552 28.2589 32.8088 27.8054C33.2623 27.3519 33.5171 26.7368 33.5171 26.0954V22.7484C33.5171 22.107 33.2623 21.4919 32.8088 21.0384C32.3552 20.5849 31.7401 20.3301 31.0988 20.3301C30.4574 20.3301 29.8423 20.5849 29.3888 21.0384C28.9353 21.4919 28.6805 22.107 28.6805 22.7484Z" fill="#B557BF"/>
</svg>
