<svg width="50" height="50" viewBox="0 0 50 50" fill="none" xmlns="http://www.w3.org/2000/svg">
<path fill-rule="evenodd" clip-rule="evenodd" d="M6.69172 39.9622C2.82505 35.7193 0.473781 30.1186 0.473781 23.9771C0.473781 10.7347 11.4037 0 24.8859 0C38.3681 0 49.2979 10.7359 49.2979 23.9771C49.2979 33.341 43.8312 41.447 35.864 45.3948C30.8184 48.0202 25.2127 49.3863 19.525 49.3767C12.2924 49.3767 5.57251 47.2147 0 43.5138C0 43.5138 3.73735 43.1059 6.68937 39.961L6.69172 39.9622ZM36.353 35.8451C42.6697 29.5308 42.6697 19.2922 36.353 12.9755C33.5441 10.1582 29.7918 8.48013 25.8193 8.26472C25.7041 5.38794 27.2524 3.44579 27.2595 3.43638V3.43521C22.7011 4.31338 18.5118 6.54114 15.2351 9.82949C12.7035 12.3524 10.7902 15.427 9.64492 18.8125C9.80716 18.3815 9.98859 17.9567 10.1892 17.5381C9.9596 18.126 9.75072 18.7263 9.56262 19.3392C7.71335 24.954 9.0183 31.3801 13.4834 35.8451C19.7989 42.1607 30.0375 42.1607 36.353 35.8451Z" fill="white"/>
<path fill-rule="evenodd" clip-rule="evenodd" d="M16.7091 22.7485V26.0955C16.7091 26.7369 16.9639 27.352 17.4174 27.8055C17.8709 28.259 18.486 28.5138 19.1274 28.5138C19.7688 28.5138 20.3839 28.259 20.8374 27.8055C21.2909 27.352 21.5457 26.7369 21.5457 26.0955V22.7485C21.5457 22.1071 21.2909 21.492 20.8374 21.0385C20.3839 20.585 19.7688 20.3302 19.1274 20.3302C18.486 20.3302 17.8709 20.585 17.4174 21.0385C16.9639 21.492 16.7091 22.1071 16.7091 22.7485ZM28.6806 22.7485V26.0955C28.6806 26.7369 28.9354 27.352 29.3889 27.8055C29.8424 28.259 30.4575 28.5138 31.0989 28.5138C31.7403 28.5138 32.3554 28.259 32.8089 27.8055C33.2624 27.352 33.5172 26.7369 33.5172 26.0955V22.7485C33.5172 22.1071 33.2624 21.492 32.8089 21.0385C32.3554 20.585 31.7403 20.3302 31.0989 20.3302C30.4575 20.3302 29.8424 20.585 29.3889 21.0385C28.9354 21.492 28.6806 22.1071 28.6806 22.7485Z" fill="white"/>
</svg>
