<?xml version="1.0" encoding="utf-8"?>
<!-- Generator: Adobe Illustrator 17.0.0, SVG Export Plug-In . SVG Version: 6.00 Build 0)  -->
<!DOCTYPE svg PUBLIC "-//W3C//DTD SVG 1.1//EN" "http://www.w3.org/Graphics/SVG/1.1/DTD/svg11.dtd">
<svg version="1.1" id="Layer_1" xmlns="http://www.w3.org/2000/svg" xmlns:xlink="http://www.w3.org/1999/xlink" x="0px" y="0px"
	 width="41.035px" height="44px" viewBox="0 0 41.035 44" enable-background="new 0 0 41.035 44" xml:space="preserve">
<path fill="#B557BF" d="M38.371,33.064c0.086,0.43,0.129,0.866,0.129,1.31s-0.043,0.881-0.129,1.311l2.664,1.096l-1.053,2.557
	l-2.664-1.117c-0.501,0.73-1.117,1.346-1.848,1.848l1.117,2.664l-2.557,1.053l-1.096-2.664c-0.43,0.086-0.867,0.129-1.311,0.129
	s-0.881-0.043-1.31-0.129l-1.096,2.664l-2.557-1.053l1.117-2.664c-0.731-0.501-1.346-1.117-1.848-1.848l-2.664,1.117l-1.053-2.557
	l2.664-1.096c-0.086-0.43-0.129-0.867-0.129-1.311s0.043-0.881,0.129-1.31l-2.664-1.096l1.053-2.557l2.664,1.117
	c0.501-0.73,1.117-1.346,1.848-1.848l-1.117-2.664l2.557-1.053l1.096,2.664c0.43-0.086,0.866-0.129,1.31-0.129
	s0.881,0.043,1.311,0.129l1.096-2.664l2.557,1.053l-1.117,2.664c0.73,0.501,1.346,1.117,1.848,1.848l2.664-1.117l1.053,2.557
	L38.371,33.064z M31.625,38.5c0.573,0,1.11-0.107,1.611-0.322c0.501-0.215,0.938-0.508,1.311-0.881
	c0.372-0.372,0.666-0.809,0.881-1.311c0.215-0.501,0.322-1.038,0.322-1.611c0-0.573-0.107-1.11-0.322-1.611
	c-0.215-0.501-0.508-0.938-0.881-1.311c-0.372-0.372-0.809-0.666-1.311-0.881c-0.501-0.215-1.038-0.322-1.611-0.322
	c-0.573,0-1.11,0.107-1.611,0.322c-0.501,0.215-0.938,0.508-1.311,0.881c-0.372,0.372-0.666,0.809-0.881,1.311
	c-0.215,0.501-0.322,1.038-0.322,1.611c0,0.573,0.107,1.11,0.322,1.611c0.215,0.501,0.508,0.938,0.881,1.311
	c0.372,0.372,0.809,0.666,1.311,0.881C30.515,38.393,31.052,38.5,31.625,38.5z M22,13.75v-11H2.75v38.5H22V44H0V0h23.955
	L35.75,11.795V22H33v-8.25H22z M24.75,11h6.295L24.75,4.705V11z"/>
</svg>
