<svg width="42" height="45" viewBox="0 0 42 45" fill="none" xmlns="http://www.w3.org/2000/svg">
<path d="M39.1211 33.8571C39.207 34.2867 39.25 34.7236 39.25 35.1676C39.25 35.6116 39.207 36.0485 39.1211 36.4781L41.7852 37.5739L40.7324 40.1305L38.0684 39.0133C37.5671 39.7438 36.9512 40.3597 36.2207 40.861L37.3379 43.525L34.7812 44.5778L33.6855 41.9137C33.2559 41.9996 32.819 42.0426 32.375 42.0426C31.931 42.0426 31.4941 41.9996 31.0645 41.9137L29.9688 44.5778L27.4121 43.525L28.5293 40.861C27.7988 40.3597 27.1829 39.7438 26.6816 39.0133L24.0176 40.1305L22.9648 37.5739L25.6289 36.4781C25.543 36.0485 25.5 35.6116 25.5 35.1676C25.5 34.7236 25.543 34.2867 25.6289 33.8571L22.9648 32.7614L24.0176 30.2047L26.6816 31.3219C27.1829 30.5914 27.7988 29.9755 28.5293 29.4742L27.4121 26.8102L29.9688 25.7574L31.0645 28.4215C31.4941 28.3356 31.931 28.2926 32.375 28.2926C32.819 28.2926 33.2559 28.3356 33.6855 28.4215L34.7812 25.7574L37.3379 26.8102L36.2207 29.4742C36.9512 29.9755 37.5671 30.5914 38.0684 31.3219L40.7324 30.2047L41.7852 32.7614L39.1211 33.8571ZM32.375 39.2926C32.9479 39.2926 33.485 39.1852 33.9863 38.9703C34.4876 38.7555 34.9245 38.4619 35.2969 38.0895C35.6693 37.7171 35.9629 37.2802 36.1777 36.7789C36.3926 36.2776 36.5 35.7405 36.5 35.1676C36.5 34.5947 36.3926 34.0576 36.1777 33.5563C35.9629 33.055 35.6693 32.6181 35.2969 32.2457C34.9245 31.8733 34.4876 31.5797 33.9863 31.3649C33.485 31.15 32.9479 31.0426 32.375 31.0426C31.8021 31.0426 31.265 31.15 30.7637 31.3649C30.2624 31.5797 29.8255 31.8733 29.4531 32.2457C29.0807 32.6181 28.7871 33.055 28.5723 33.5563C28.3574 34.0576 28.25 34.5947 28.25 35.1676C28.25 35.7405 28.3574 36.2776 28.5723 36.7789C28.7871 37.2802 29.0807 37.7171 29.4531 38.0895C29.8255 38.4619 30.2624 38.7555 30.7637 38.9703C31.265 39.1852 31.8021 39.2926 32.375 39.2926ZM22.75 14.5426V3.5426H3.5V42.0426H22.75V44.7926H0.75V0.792603H24.7051L36.5 12.5875V22.7926H33.75V14.5426H22.75ZM25.5 11.7926H31.7949L25.5 5.49768V11.7926Z" fill="white"/>
</svg>
