<svg width="45" height="42" viewBox="0 0 45 42" fill="none" xmlns="http://www.w3.org/2000/svg">
<path d="M7.8 1.3C7.8 0.955219 7.93696 0.624559 8.18076 0.380761C8.42456 0.136964 8.75522 0 9.1 0H16.9C17.2448 0 17.5754 0.136964 17.8192 0.380761C18.063 0.624559 18.2 0.955219 18.2 1.3V9.1C18.2 9.44478 18.063 9.77544 17.8192 10.0192C17.5754 10.263 17.2448 10.4 16.9 10.4H9.1C8.75522 10.4 8.42456 10.263 8.18076 10.0192C7.93696 9.77544 7.8 9.44478 7.8 9.1V1.3ZM24.7 0C24.3552 0 24.0246 0.136964 23.7808 0.380761C23.537 0.624559 23.4 0.955219 23.4 1.3V9.1C23.4 9.44478 23.537 9.77544 23.7808 10.0192C24.0246 10.263 24.3552 10.4 24.7 10.4H32.5C32.8448 10.4 33.1754 10.263 33.4192 10.0192C33.663 9.77544 33.8 9.44478 33.8 9.1V1.3C33.8 0.955219 33.663 0.624559 33.4192 0.380761C33.1754 0.136964 32.8448 0 32.5 0H24.7ZM26 7.8V2.6H31.2V7.8H26ZM10.4 13C7.64175 13 4.99647 14.0957 3.04609 16.0461C1.09571 17.9965 0 20.6417 0 23.4C0 26.1583 1.09571 28.8035 3.04609 30.7539C4.99647 32.7043 7.64175 33.8 10.4 33.8H18.7382C18.3798 32.531 18.1987 31.2186 18.2 29.9C18.2 28.2724 18.473 26.7072 18.9722 25.2486C18.5676 24.8495 18.3048 24.3288 18.2243 23.7662C18.1437 23.2035 18.2497 22.63 18.526 22.1334C18.8024 21.6367 19.2338 21.2443 19.7544 21.0162C20.275 20.788 20.8559 20.7368 21.4084 20.8702C22.7485 19.2217 24.4396 17.8931 26.3585 16.9814C28.2774 16.0696 30.3755 15.5977 32.5 15.6C35.191 15.6 37.7078 16.3436 39.858 17.6358C38.9084 16.2097 37.6211 15.0403 36.1107 14.2315C34.6002 13.4228 32.9133 12.9997 31.2 13H10.4ZM10.4 26C9.71044 26 9.04912 25.7261 8.56152 25.2385C8.07393 24.7509 7.8 24.0896 7.8 23.4C7.8 22.7104 8.07393 22.0491 8.56152 21.5615C9.04912 21.0739 9.71044 20.8 10.4 20.8C11.0896 20.8 11.7509 21.0739 12.2385 21.5615C12.7261 22.0491 13 22.7104 13 23.4C13 24.0896 12.7261 24.7509 12.2385 25.2385C11.7509 25.7261 11.0896 26 10.4 26ZM44.2 29.9C44.2 33.003 42.9673 35.979 40.7732 38.1731C38.579 40.3673 35.603 41.6 32.5 41.6C29.397 41.6 26.421 40.3673 24.2269 38.1731C22.0327 35.979 20.8 33.003 20.8 29.9C20.8 26.797 22.0327 23.821 24.2269 21.6269C26.421 19.4327 29.397 18.2 32.5 18.2C35.603 18.2 38.579 19.4327 40.7732 21.6269C42.9673 23.821 44.2 26.797 44.2 29.9ZM36.7796 25.0796L29.9 31.9618L28.2204 30.2796C27.9763 30.0355 27.6452 29.8984 27.3 29.8984C26.9548 29.8984 26.6237 30.0355 26.3796 30.2796C26.1355 30.5237 25.9984 30.8548 25.9984 31.2C25.9984 31.5452 26.1355 31.8763 26.3796 32.1204L28.9796 34.7204C29.1004 34.8415 29.2438 34.9375 29.4018 35.0031C29.5597 35.0686 29.729 35.1023 29.9 35.1023C30.071 35.1023 30.2403 35.0686 30.3982 35.0031C30.5562 34.9375 30.6996 34.8415 30.8204 34.7204L38.6204 26.9204C38.8645 26.6763 39.0016 26.3452 39.0016 26C39.0016 25.6548 38.8645 25.3237 38.6204 25.0796C38.3763 24.8355 38.0452 24.6984 37.7 24.6984C37.3548 24.6984 37.0237 24.8355 36.7796 25.0796Z" fill="#B557BF"/>
</svg>
