<?xml version="1.0" encoding="utf-8"?>
<!-- Generator: Adobe Illustrator 17.0.0, SVG Export Plug-In . SVG Version: 6.00 Build 0)  -->
<!DOCTYPE svg PUBLIC "-//W3C//DTD SVG 1.1//EN" "http://www.w3.org/Graphics/SVG/1.1/DTD/svg11.dtd">
<svg version="1.1" id="Layer_1" xmlns="http://www.w3.org/2000/svg" xmlns:xlink="http://www.w3.org/1999/xlink" x="0px" y="0px"
	 width="42.75px" height="47.5px" viewBox="0 0 42.75 47.5" enable-background="new 0 0 42.75 47.5" xml:space="preserve">
<path fill="#B557BF" d="M38,4.75h-9.927c-0.486-1.388-1.392-2.591-2.592-3.442C24.281,0.457,22.846,0,21.375,0
	s-2.906,0.457-4.106,1.308c-1.2,0.851-2.106,2.054-2.592,3.442H4.75C3.491,4.754,2.285,5.256,1.395,6.146
	C0.505,7.036,0.004,8.242,0,9.5v33.25c0.004,1.259,0.505,2.465,1.395,3.355c0.89,0.89,2.096,1.392,3.355,1.395H38
	c1.259-0.004,2.465-0.505,3.355-1.395s1.392-2.096,1.395-3.355V9.5c-0.004-1.259-0.505-2.465-1.395-3.355
	C40.465,5.256,39.259,4.754,38,4.75z M21.375,4.75c0.47,0,0.929,0.139,1.319,0.4c0.39,0.261,0.695,0.632,0.875,1.066
	c0.18,0.434,0.227,0.912,0.135,1.372c-0.092,0.461-0.318,0.884-0.65,1.216c-0.332,0.332-0.755,0.558-1.216,0.65
	C21.378,9.546,20.9,9.499,20.466,9.32c-0.434-0.18-0.805-0.484-1.066-0.875C19.139,8.054,19,7.595,19,7.125
	c0.002-0.629,0.253-1.232,0.698-1.677C20.143,5.003,20.746,4.752,21.375,4.75z M16.625,16.625l6.626,6.636l5.985-5.985l-3.111-3.026
	h9.5v9.5l-3.03-3.114l-9.339,9.346l-6.631-6.636l-6.142,6.137l-3.358-3.358L16.625,16.625z M38,40.375H4.75v-4.75H38V40.375z"/>
</svg>
