<svg width="43" height="48" viewBox="0 0 43 48" fill="none" xmlns="http://www.w3.org/2000/svg">
<path d="M38 4.75048H28.0725C27.5862 3.36215 26.6805 2.15925 25.4806 1.3082C24.2807 0.457147 22.846 0 21.375 0C19.904 0 18.4693 0.457147 17.2694 1.3082C16.0695 2.15925 15.1638 3.36215 14.6775 4.75048H4.75C3.49138 4.75424 2.28538 5.25589 1.3954 6.14588C0.505411 7.03586 0.00375898 8.24186 0 9.50048V42.7505C0.00375898 44.0091 0.505411 45.2151 1.3954 46.1051C2.28538 46.9951 3.49138 47.4967 4.75 47.5005H38C39.2586 47.4967 40.4646 46.9951 41.3546 46.1051C42.2446 45.2151 42.7462 44.0091 42.75 42.7505V9.50048C42.7462 8.24186 42.2446 7.03586 41.3546 6.14588C40.4646 5.25589 39.2586 4.75424 38 4.75048ZM21.375 4.75048C21.8447 4.75048 22.3039 4.88977 22.6945 5.15074C23.085 5.41171 23.3895 5.78263 23.5692 6.21661C23.749 6.65058 23.796 7.12812 23.7044 7.58882C23.6127 8.04953 23.3865 8.47271 23.0544 8.80486C22.7222 9.13701 22.299 9.36321 21.8383 9.45485C21.3776 9.54649 20.9001 9.49945 20.4661 9.31969C20.0322 9.13994 19.6612 8.83553 19.4003 8.44496C19.1393 8.05439 19 7.59521 19 7.12548C19.0019 6.49617 19.2527 5.89317 19.6977 5.44818C20.1427 5.00319 20.7457 4.75236 21.375 4.75048ZM16.625 16.6255L23.2512 23.2612L29.2363 17.2762L26.125 14.2505H35.625V23.7505L32.5945 20.6369L23.256 29.9825L16.625 23.3467L10.4833 29.4837L7.125 26.1255L16.625 16.6255ZM38 40.3755H4.75V35.6255H38V40.3755Z" fill="white"/>
</svg>
