<svg width="53" height="54" viewBox="0 0 53 54" fill="none" xmlns="http://www.w3.org/2000/svg">
<path d="M33.4834 35.0142H52.4621V38.81H33.4834V35.0142ZM33.4834 42.6057H52.4621V46.4015H33.4834V42.6057ZM33.4834 50.1972H52.4621V53.993H33.4834V50.1972ZM25.8919 35.0142C24.8886 35.0376 23.891 34.8572 22.9594 34.484C22.0278 34.1108 21.1815 33.5524 20.4719 32.8428C19.7623 32.1331 19.2039 31.2869 18.8307 30.3553C18.4575 29.4237 18.2771 28.4261 18.3004 27.4228C18.2771 26.4194 18.4575 25.4218 18.8307 24.4902C19.2039 23.5586 19.7623 22.7124 20.4719 22.0027C21.1815 21.2931 22.0278 20.7348 22.9594 20.3615C23.891 19.9883 24.8886 19.8079 25.8919 19.8313C26.8953 19.8079 27.8929 19.9883 28.8245 20.3615C29.7561 20.7348 30.6023 21.2931 31.312 22.0027C32.0216 22.7124 32.5799 23.5586 32.9532 24.4902C33.3264 25.4218 33.5068 26.4194 33.4834 27.4228H37.2792C37.2792 25.1706 36.6113 22.969 35.3601 21.0964C34.1088 19.2237 32.3304 17.7642 30.2496 16.9023C28.1689 16.0405 25.8793 15.815 23.6704 16.2543C21.4615 16.6937 19.4325 17.7782 17.8399 19.3708C16.2474 20.9633 15.1629 22.9923 14.7235 25.2012C14.2841 27.4101 14.5096 29.6997 15.3715 31.7805C16.2334 33.8612 17.6929 35.6396 19.5655 36.8909C21.4381 38.1421 23.6398 38.81 25.8919 38.81V35.0142Z" fill="white"/>
<path d="M51.1447 18.0169L46.6657 10.2584C46.227 9.49787 45.5383 8.91295 44.7167 8.60323C43.8952 8.29352 42.9917 8.27817 42.1602 8.5598L37.5407 10.1236C36.7448 9.58745 35.9128 9.10678 35.0507 8.68506L34.0942 3.90242C33.9218 3.0423 33.4569 2.26843 32.7784 1.71241C32.0998 1.15639 31.2497 0.852542 30.3725 0.852539H21.4145C20.537 0.85263 19.6867 1.15675 19.0081 1.71314C18.3296 2.26954 17.8648 3.04384 17.6928 3.90432L16.7363 8.68506C15.8647 9.10256 15.0232 9.58007 14.2178 10.1142L9.62494 8.5598C8.79387 8.27915 7.89125 8.29501 7.07054 8.60468C6.24984 8.91434 5.56173 9.4987 5.12319 10.2584L0.644212 18.0169C0.205445 18.7766 0.0433843 19.6648 0.185592 20.5305C0.3278 21.3962 0.765495 22.1859 1.42424 22.7654L5.08903 25.9861C5.05676 26.4643 5.01691 26.9388 5.01691 27.4227C5.01691 27.9124 5.03462 28.397 5.07005 28.8765L1.42614 32.0801C0.766779 32.659 0.328355 33.4485 0.185451 34.3143C0.0425476 35.18 0.20399 36.0685 0.642314 36.8286L5.12129 44.5871C5.55997 45.3476 6.24873 45.9325 7.07026 46.2423C7.89178 46.552 8.79527 46.5673 9.62684 46.2857L14.2463 44.7218C15.0422 45.2587 15.8741 45.74 16.7363 46.1623L17.6909 50.9412C17.863 51.802 18.328 52.5765 19.007 53.1329C19.6859 53.6894 20.5367 53.9933 21.4145 53.993H25.8935V50.1972H21.4145L20.067 43.4598C18.2031 42.7671 16.4727 41.7578 14.9523 40.4763L8.4103 42.6892L3.93133 34.9307L9.10303 30.3853C8.74816 28.4228 8.74366 26.4129 9.08974 24.4488L3.93133 19.9129L8.4103 12.1563L14.9143 14.3578C16.4448 13.0734 18.1888 12.0674 20.067 11.3857L21.4145 4.64828H30.3725L31.72 11.3857C33.5839 12.0783 35.3143 13.0877 36.8347 14.3692L43.3767 12.1563L47.8557 19.9148L42.5454 24.5683L45.0468 27.4227L50.3609 22.7654C51.0202 22.1864 51.4586 21.397 51.6015 20.5312C51.7445 19.6655 51.583 18.777 51.1447 18.0169Z" fill="white"/>
</svg>
