<?xml version="1.0" encoding="utf-8"?>
<!-- Generator: Adobe Illustrator 17.0.0, SVG Export Plug-In . SVG Version: 6.00 Build 0)  -->
<!DOCTYPE svg PUBLIC "-//W3C//DTD SVG 1.1//EN" "http://www.w3.org/Graphics/SVG/1.1/DTD/svg11.dtd">
<svg version="1.1" id="Layer_1" xmlns="http://www.w3.org/2000/svg" xmlns:xlink="http://www.w3.org/1999/xlink" x="0px" y="0px"
	 width="51.517px" height="53.14px" viewBox="0 0 51.517 53.14" enable-background="new 0 0 51.517 53.14" xml:space="preserve">
<path fill="#B557BF" d="M33.349,34.162h18.979v3.796H33.349V34.162z M33.349,41.753h18.979v3.796H33.349V41.753z M33.349,49.345
	h18.979v3.796H33.349V49.345z M25.757,34.162c-1.003,0.023-2.001-0.157-2.932-0.53s-1.778-0.932-2.487-1.641
	c-0.71-0.71-1.268-1.556-1.641-2.487c-0.373-0.932-0.554-1.929-0.53-2.933c-0.023-1.003,0.157-2.001,0.53-2.933
	s0.932-1.778,1.641-2.487c0.71-0.71,1.556-1.268,2.487-1.641c0.932-0.373,1.929-0.554,2.932-0.53
	c1.003-0.023,2.001,0.157,2.933,0.53c0.932,0.373,1.778,0.932,2.488,1.641c0.71,0.71,1.268,1.556,1.641,2.487
	c0.373,0.932,0.554,1.929,0.53,2.933h3.796c0-2.252-0.668-4.454-1.919-6.326c-1.251-1.873-3.03-3.332-5.111-4.194
	c-2.081-0.862-4.37-1.087-6.579-0.648c-2.209,0.439-4.238,1.524-5.831,3.117c-1.592,1.593-2.677,3.622-3.116,5.83
	c-0.439,2.209-0.214,4.498,0.648,6.579c0.862,2.081,2.321,3.859,4.194,5.11c1.873,1.251,4.074,1.919,6.326,1.919V34.162z"/>
<path fill="#B557BF" d="M51.01,17.164l-4.479-7.758c-0.439-0.761-1.127-1.345-1.949-1.655c-0.822-0.31-1.725-0.325-2.557-0.043
	l-4.619,1.564c-0.796-0.536-1.628-1.017-2.49-1.439L33.959,3.05c-0.172-0.86-0.637-1.634-1.316-2.19C31.965,0.304,31.115,0,30.238,0
	H21.28c-0.877,0-1.728,0.304-2.406,0.861c-0.679,0.556-1.143,1.331-1.315,2.191l-0.957,4.781c-0.872,0.418-1.713,0.895-2.518,1.429
	L9.49,7.707C8.659,7.427,7.756,7.442,6.936,7.752c-0.821,0.31-1.509,0.894-1.947,1.654l-4.479,7.758
	c-0.439,0.76-0.601,1.648-0.459,2.514c0.142,0.866,0.58,1.655,1.239,2.235l3.665,3.221c-0.032,0.478-0.072,0.953-0.072,1.437
	c0,0.49,0.018,0.974,0.053,1.454l-3.644,3.204c-0.659,0.579-1.098,1.368-1.241,2.234c-0.143,0.866,0.019,1.754,0.457,2.514
	l4.479,7.758c0.439,0.76,1.127,1.345,1.949,1.655c0.822,0.31,1.725,0.325,2.557,0.043l4.619-1.564
	c0.796,0.537,1.628,1.018,2.49,1.44l0.955,4.779c0.172,0.861,0.637,1.635,1.316,2.192c0.679,0.556,1.53,0.86,2.407,0.86h4.479
	v-3.796H21.28l-1.347-6.737c-1.864-0.693-3.594-1.702-5.115-2.984l-6.542,2.213l-4.479-7.759l5.172-4.545
	c-0.355-1.962-0.359-3.972-0.013-5.937L3.797,19.06l4.479-7.757l6.504,2.201c1.53-1.284,3.275-2.29,5.153-2.972l1.347-6.737h8.958
	l1.347,6.737c1.864,0.693,3.594,1.702,5.115,2.983l6.542-2.213l4.479,7.759l-5.31,4.653l2.501,2.854l5.314-4.657
	c0.659-0.579,1.098-1.368,1.241-2.234C51.61,18.813,51.448,17.924,51.01,17.164z"/>
</svg>
