<svg width="180" height="100" viewBox="0 0 180 100" fill="none" xmlns="http://www.w3.org/2000/svg">
<path d="M169.065 62.2007C169.065 59.5751 171.204 57.533 173.732 57.533C176.358 57.533 178.4 59.6723 178.4 62.2007C178.4 64.729 176.261 66.8683 173.732 66.8683C171.204 66.8683 169.065 64.8262 169.065 62.2007Z" fill="#B557BF"/>
<path d="M28.8393 49.6562C28.8393 55.1019 27.4778 59.1861 24.5605 62.1034C21.6432 65.0207 17.559 66.4794 12.3078 66.4794H2V34.0972H12.8913C18.0452 34.0972 21.9349 35.3614 24.6578 38.0842C27.4778 40.7098 28.8393 44.5995 28.8393 49.6562ZM19.8928 49.9479C19.8928 46.9334 19.3094 44.794 18.1424 43.3354C17.0728 41.974 15.2251 41.196 12.8913 41.196H10.5574V59.2833H12.5023C15.1279 59.2833 16.9755 58.5054 18.2397 56.9495C19.3094 55.3936 19.8928 53.0597 19.8928 49.9479Z" fill="#B557BF"/>
<path d="M65.2084 34H57.1372V66.4794H65.2084V34Z" fill="#B557BF"/>
<path d="M91.8534 54.3239C91.8534 58.2136 90.8809 61.3254 88.7416 63.562C86.6022 65.7986 83.6849 66.8683 79.9896 66.8683C76.3916 66.8683 73.5715 65.7986 71.4322 63.4648C69.2928 61.131 68.2231 58.1164 68.2231 54.3239C68.2231 50.4342 69.1956 47.3224 71.3349 45.183C73.4743 42.9464 76.3916 41.8767 80.0869 41.8767C82.4207 41.8767 84.4628 42.3629 86.2132 43.3354C88.0609 44.3078 89.325 45.7665 90.2975 47.6141C91.4644 49.6562 91.8534 51.7956 91.8534 54.3239ZM76.5861 54.3239C76.5861 56.4633 76.8778 57.9219 77.3641 58.9916C77.8503 60.0613 78.7255 60.5475 80.0869 60.5475C81.4483 60.5475 82.2262 60.0613 82.8097 58.9916C83.2959 57.9219 83.5876 56.2688 83.5876 54.3239C83.5876 52.1845 83.2959 50.7259 82.8097 49.6562C82.3235 48.6838 81.4483 48.1003 80.0869 48.1003C78.92 48.1003 77.9475 48.5865 77.3641 49.6562C76.8778 50.7259 76.5861 52.1845 76.5861 54.3239Z" fill="#B557BF"/>
<path d="M103.231 42.2657H95.1594V66.3821H103.231V42.2657Z" fill="#B557BF"/>
<path d="M103.231 34H95.1594V39.4456H103.231V34Z" fill="#B557BF"/>
<path d="M119.665 60.2558C120.735 60.2558 122.096 59.9641 123.555 59.4779V65.6042C122.485 66.0905 121.415 66.3822 120.443 66.5767C119.47 66.7712 118.303 66.8684 116.942 66.8684C114.219 66.8684 112.274 66.1877 111.01 64.729C109.843 63.3676 109.163 61.2283 109.163 58.4082V48.4894H106.343V42.2658H109.163V36.2367L117.331 34.8752V42.4602H122.582V48.5866H117.331V57.922C117.526 59.5751 118.206 60.2558 119.665 60.2558Z" fill="#B557BF"/>
<path d="M138.53 60.2558C139.6 60.2558 140.961 59.9641 142.42 59.4779V65.6042C141.35 66.0905 140.281 66.3822 139.308 66.5767C138.336 66.7712 137.169 66.8684 135.807 66.8684C133.085 66.8684 131.14 66.1877 129.875 64.729C128.709 63.3676 128.028 61.2283 128.028 58.4082V48.4894H125.208V42.2658H128.028V36.1394L136.196 34.8752V42.4602H141.447V48.5866H136.196V57.922C136.294 59.5751 137.071 60.2558 138.53 60.2558Z" fill="#B557BF"/>
<path d="M164.202 44.6968C162.258 42.7519 159.535 41.8767 156.034 41.8767C152.339 41.8767 149.421 42.9464 147.379 45.183C145.337 47.4196 144.365 50.5314 144.365 54.6156C144.365 58.5054 145.434 61.6172 147.574 63.7565C149.81 65.8959 152.825 66.9656 156.715 66.9656C158.66 66.9656 160.215 66.8683 161.577 66.5766C162.841 66.2849 164.3 65.8959 165.467 65.2152L164.3 59.7695C163.425 60.1585 162.452 60.4502 161.674 60.6447C160.507 60.9365 159.146 61.0337 157.784 61.0337C156.228 61.0337 154.964 60.6447 154.089 59.964C153.214 59.1861 152.728 58.1164 152.728 56.755H167.217V52.9625C167.12 49.3645 166.05 46.6416 164.202 44.6968ZM152.728 51.4066C152.825 50.1424 153.214 49.0727 153.797 48.4893C154.381 47.9058 155.159 47.6141 156.228 47.6141C157.201 47.6141 158.173 47.9058 158.757 48.5865C159.34 49.2672 159.632 50.1424 159.729 51.4066H152.728Z" fill="#B557BF"/>
<path d="M51.1082 44.6968C49.0661 42.7519 46.4405 41.8767 42.9397 41.8767C39.2445 41.8767 36.3272 42.9464 34.2851 45.183C32.2429 47.4196 31.2705 50.5314 31.2705 54.6156C31.2705 58.5054 32.3402 61.6172 34.4795 63.7565C36.7162 65.8959 39.7307 66.9656 43.6205 66.9656C45.5653 66.9656 47.1212 66.8683 48.4826 66.5766C49.7468 66.2849 51.2055 65.8959 52.3724 65.2152L51.2055 59.6723C50.3303 60.0613 49.3578 60.353 48.5799 60.5475C47.413 60.8392 46.0515 60.9365 44.6901 60.9365C43.1342 60.9365 41.8701 60.5475 40.9949 59.8668C40.1197 59.0888 39.6335 58.0192 39.6335 56.6577H54.1228V52.9625C54.0255 49.3645 52.9558 46.6416 51.1082 44.6968ZM39.5362 51.4066C39.6335 50.1424 40.0224 49.0727 40.6059 48.4893C41.1894 47.9058 41.9673 47.6141 43.037 47.6141C44.1067 47.6141 44.9819 47.9058 45.5653 48.5865C46.1488 49.2672 46.4405 50.1424 46.5378 51.4066H39.5362Z" fill="#B557BF"/>
</svg>
