<svg width="180" height="101" viewBox="0 0 180 101" fill="none" xmlns="http://www.w3.org/2000/svg">
<path d="M128.455 26.1391C130.5 30.9404 131.491 36.3522 131.491 42.6842C131.491 46.1053 131.207 49.7522 130.63 53.8341C129.433 62.2404 126.247 71.0232 123.311 76.8114C122.834 77.7441 122.453 78.363 121.688 79.0406C120.35 80.22 119.17 80.5127 118.735 80.2576C118.384 80.0485 118.187 78.9946 118.258 77.4429C118.317 76.1214 118.631 75.1427 119.112 73.5785C121.365 66.1685 123.043 58.5956 124.13 50.9274C125.741 39.7859 125.678 29.7652 123.29 23.6591C123.049 23.032 122.741 22.4331 122.37 21.8732C122.11 21.4968 121.926 21.3044 121.926 21.3044C116.987 16.3568 103.65 13.8767 90.3084 13.8767C76.967 13.8767 63.634 16.3568 58.6989 21.3044C58.6989 21.3044 58.5107 21.4926 58.2556 21.8732C57.8771 22.4279 57.5668 23.026 57.3313 23.6549C54.939 29.761 54.8805 39.7859 56.4907 50.9274C57.578 58.4848 59.3011 66.4854 61.6223 73.9466C62.0238 75.2305 62.2831 76.1046 62.3458 77.4597C62.4127 79.0029 62.2204 80.0527 61.8691 80.2618C61.4341 80.5127 60.2422 80.22 58.8996 79.028C57.9377 78.1707 57.4568 77.3342 56.8503 76.0963C54.0064 70.3038 51.0244 61.8891 49.8785 53.8341C49.3298 50.1423 49.0419 46.4164 49.017 42.6842C49.017 36.3522 50.0123 30.9446 52.0533 26.1475C53.5882 22.5508 56.1644 19.5395 59.5061 17.4359C67.7192 12.243 77.103 9.1918 86.7995 8.56109C87.9344 8.49176 89.0711 8.45549 90.2081 8.45235H90.2917C91.4404 8.45514 92.5808 8.49139 93.7128 8.56109C103.257 9.13824 112.696 12.2122 121.002 17.4359C124.313 19.5137 126.913 22.5469 128.455 26.1391ZM108.535 86.8907C108.167 86.9701 107.025 87.2378 105.892 87.5473C104.875 87.8275 103.872 88.0492 103.395 88.1454C99.0997 88.9543 94.7375 89.3534 90.367 89.3373H90.2499C85.5783 89.3373 81.1451 88.9065 77.2263 88.1454C76.4399 87.985 75.6588 87.7995 74.8843 87.5891C74.0466 87.3654 73.2044 87.159 72.3582 86.9701C70.61 86.5728 69.0291 86.2884 68.9413 86.623C68.8367 87.012 69.6188 87.8275 70.6183 88.597C70.8526 88.7727 71.4339 89.1826 72.1114 89.5171C72.7388 89.8224 73.4497 90.0525 73.7258 90.1445C78.3179 91.6292 83.5374 92.244 90.2081 92.244H90.3001C96.8369 92.244 101.985 91.6501 106.515 90.2239C108.066 89.7346 108.982 89.3415 110.082 88.4674C111.002 87.7397 111.692 86.991 111.592 86.6272C111.508 86.3135 110.137 86.5394 108.535 86.8907ZM98.0456 43.759C97.4392 40.3714 96.7073 37.77 95.8792 36.0218L95.8708 36.0051H95.783L92.9307 35.98H92.8889L92.776 48.5184H98.7399L98.7357 48.4766C98.7357 48.4557 98.5015 46.2935 98.0456 43.759ZM122.135 50.8145C120.789 60.1326 118.455 70.1491 115.193 78.8398C114.649 80.3036 114.156 80.8473 112.976 81.7674C109.935 83.9137 106.468 85.38 102.809 86.0668C99.0577 86.7987 94.8295 87.2043 90.3712 87.2043H90.2499C86.0785 87.221 81.9151 86.8401 77.816 86.0668C74.1548 85.3811 70.6842 83.9148 67.6406 81.7674C66.4612 80.8473 65.9718 80.3036 65.4365 78.8398C62.166 70.1491 59.8323 60.1326 58.4898 50.8145C56.9298 40.0368 57.026 30.5431 59.2426 24.8761C59.5228 24.1651 59.8197 23.6549 60.0372 23.3328C60.2296 23.061 60.3634 22.9146 60.3634 22.9146C64.8301 18.4396 77.3434 16.0055 90.3084 16.0055C103.273 16.0055 115.791 18.4396 120.253 22.9188C120.253 22.9188 120.387 23.0568 120.58 23.337C120.797 23.6549 121.098 24.1609 121.374 24.8761C123.595 30.5431 123.691 40.0368 122.135 50.8145ZM77.1343 31.6388L65.9175 31.5761L67.0341 70.6259L71.7266 70.676L71.6597 52.9014H75.9005V48.3135H71.6597V36.2184H77.1385V31.6346L77.1343 31.6388ZM84.9802 31.5552L79.2714 31.5677L80.0284 70.6719H84.8673L84.9802 31.5552ZM99.4007 31.6137H87.9747L88.4264 70.6509H92.9934L93.0311 52.9934H98.9615L98.9699 53.0227C99.5052 56.356 99.5471 70.4669 99.5471 70.6091V70.6719H103.993L104.03 68.6686C104.231 58.5475 104.574 41.6135 99.4007 31.6137ZM117.468 31.5593L103.483 31.6137V36.118H107.656V36.1598L107.481 70.6719H112.215L113.365 36.118H117.468V31.5593ZM140.165 50.1871C140.165 77.8612 117.698 100.374 90.0784 100.374C62.4671 100.374 40 77.8612 40 50.1871C40 22.5131 62.4671 0 90.0826 0C117.702 0 140.165 22.5131 140.165 50.1871ZM138.785 50.1537C138.764 23.2576 116.924 1.38015 90.0742 1.38015C63.4918 1.38015 41.8193 22.8477 41.3927 49.3967C41.9831 48.0378 42.9832 46.8973 44.2534 46.1345C46.9927 44.5118 47.7414 40.3421 47.9881 37.8495L48.0383 37.5902C47.8752 39.2422 47.7455 40.8942 47.7455 42.6842C47.7455 46.1638 48.0383 49.8693 48.6238 54.0097C50.3469 66.1383 56.2063 79.1326 59.6525 83.1099L59.8448 83.319L60.6478 84.1638L60.6771 84.1889C69.0835 91.0771 76.8081 93.5154 90.2081 93.5154H90.3001C103.696 93.5154 111.42 91.0771 119.827 84.1889L119.864 84.1638L120.638 83.3399L120.856 83.1057C124.31 79.1159 130.165 66.1383 131.888 54.0097C132.474 49.8693 132.763 46.1638 132.763 42.6842C132.763 40.7882 132.673 38.9633 132.495 37.2096L132.52 37.2347C132.771 39.7315 134.105 46.1889 136.681 48.05C137.554 48.6801 138.255 49.3814 138.785 50.1537Z" fill="#B557BF"/>
</svg>
