<svg width="216" height="212" viewBox="0 0 216 212" fill="none" xmlns="http://www.w3.org/2000/svg">
<path d="M210.924 198.354H212.842L211.019 202.664H209.804L210.924 198.354ZM214 198.354H215.918L214.095 202.664H212.861L214 198.354Z" fill="white"/>
<path d="M208.378 205.987C208.378 206.316 208.359 206.664 208.321 207.031H200.004C200.067 208.057 200.416 208.86 201.048 209.443C201.694 210.012 202.472 210.297 203.384 210.297C204.131 210.297 204.751 210.126 205.245 209.784C205.751 209.43 206.105 208.962 206.308 208.379H208.169C207.89 209.379 207.333 210.196 206.498 210.829C205.662 211.449 204.624 211.759 203.384 211.759C202.397 211.759 201.51 211.538 200.726 211.095C199.953 210.652 199.346 210.025 198.903 209.215C198.46 208.392 198.238 207.443 198.238 206.367C198.238 205.291 198.453 204.348 198.884 203.538C199.314 202.727 199.916 202.107 200.688 201.677C201.472 201.234 202.371 201.012 203.384 201.012C204.371 201.012 205.245 201.227 206.004 201.658C206.764 202.088 207.346 202.683 207.751 203.443C208.169 204.189 208.378 205.038 208.378 205.987ZM206.593 205.626C206.593 204.968 206.447 204.405 206.156 203.936C205.865 203.455 205.466 203.095 204.96 202.854C204.466 202.601 203.916 202.474 203.308 202.474C202.435 202.474 201.688 202.753 201.067 203.31C200.46 203.867 200.112 204.639 200.023 205.626H206.593Z" fill="white"/>
<path d="M186.705 206.367C186.705 205.291 186.92 204.354 187.35 203.557C187.781 202.746 188.376 202.12 189.135 201.677C189.907 201.234 190.787 201.012 191.774 201.012C193.053 201.012 194.104 201.322 194.926 201.943C195.762 202.563 196.312 203.424 196.578 204.525H194.718C194.54 203.892 194.192 203.392 193.673 203.025C193.167 202.658 192.534 202.474 191.774 202.474C190.787 202.474 189.99 202.816 189.382 203.5C188.774 204.17 188.471 205.126 188.471 206.367C188.471 207.62 188.774 208.588 189.382 209.272C189.99 209.955 190.787 210.297 191.774 210.297C192.534 210.297 193.167 210.12 193.673 209.765C194.18 209.411 194.528 208.905 194.718 208.246H196.578C196.3 209.31 195.743 210.164 194.907 210.81C194.072 211.443 193.028 211.759 191.774 211.759C190.787 211.759 189.907 211.538 189.135 211.095C188.376 210.652 187.781 210.025 187.35 209.215C186.92 208.405 186.705 207.455 186.705 206.367Z" fill="white"/>
<path d="M180.275 200.993C181.541 200.993 182.566 201.379 183.351 202.151C184.136 202.911 184.528 204.012 184.528 205.455V211.588H182.819V205.702C182.819 204.664 182.56 203.873 182.041 203.329C181.522 202.772 180.813 202.493 179.914 202.493C179.003 202.493 178.275 202.778 177.73 203.348C177.199 203.917 176.933 204.746 176.933 205.835V211.588H175.205V201.183H176.933V202.664C177.275 202.132 177.737 201.721 178.319 201.43C178.914 201.139 179.566 200.993 180.275 200.993Z" fill="white"/>
<path d="M172.924 205.987C172.924 206.316 172.905 206.664 172.867 207.031H164.551C164.614 208.057 164.962 208.86 165.595 209.443C166.241 210.012 167.019 210.297 167.931 210.297C168.677 210.297 169.298 210.126 169.791 209.784C170.298 209.43 170.652 208.962 170.855 208.379H172.715C172.437 209.379 171.88 210.196 171.045 210.829C170.209 211.449 169.171 211.759 167.931 211.759C166.943 211.759 166.057 211.538 165.272 211.095C164.5 210.652 163.893 210.025 163.45 209.215C163.007 208.392 162.785 207.443 162.785 206.367C162.785 205.291 163 204.348 163.431 203.538C163.861 202.727 164.462 202.107 165.234 201.677C166.019 201.234 166.918 201.012 167.931 201.012C168.918 201.012 169.791 201.227 170.551 201.658C171.31 202.088 171.893 202.683 172.298 203.443C172.716 204.189 172.924 205.038 172.924 205.987ZM171.14 205.626C171.14 204.968 170.994 204.405 170.703 203.936C170.412 203.455 170.013 203.095 169.507 202.854C169.013 202.601 168.462 202.474 167.855 202.474C166.981 202.474 166.234 202.753 165.614 203.31C165.007 203.867 164.658 204.639 164.57 205.626H171.14Z" fill="white"/>
<path d="M160.486 197.538V211.588H158.758V197.538H160.486Z" fill="white"/>
<path d="M155.813 197.538V211.588H154.085V197.538H155.813Z" fill="white"/>
<path d="M151.804 205.987C151.804 206.316 151.785 206.664 151.748 207.031H143.431C143.494 208.057 143.842 208.86 144.475 209.443C145.121 210.012 145.899 210.297 146.811 210.297C147.558 210.297 148.178 210.126 148.672 209.784C149.178 209.43 149.532 208.962 149.735 208.379H151.596C151.317 209.379 150.76 210.196 149.925 210.829C149.089 211.449 148.051 211.759 146.811 211.759C145.823 211.759 144.937 211.538 144.153 211.095C143.38 210.652 142.773 210.025 142.33 209.215C141.887 208.392 141.665 207.443 141.665 206.367C141.665 205.291 141.88 204.348 142.311 203.538C142.741 202.727 143.342 202.107 144.115 201.677C144.899 201.234 145.798 201.012 146.811 201.012C147.798 201.012 148.672 201.227 149.431 201.658C150.191 202.088 150.773 202.683 151.178 203.443C151.596 204.189 151.804 205.038 151.804 205.987ZM150.02 205.626C150.02 204.968 149.874 204.405 149.583 203.936C149.292 203.455 148.893 203.095 148.387 202.854C147.893 202.601 147.342 202.474 146.735 202.474C145.861 202.474 145.115 202.753 144.494 203.31C143.887 203.867 143.539 204.639 143.45 205.626H150.02Z" fill="white"/>
<path d="M130.132 206.367C130.132 205.291 130.347 204.354 130.777 203.557C131.208 202.746 131.803 202.12 132.562 201.677C133.334 201.234 134.214 201.012 135.201 201.012C136.48 201.012 137.531 201.322 138.353 201.943C139.189 202.563 139.739 203.424 140.005 204.525H138.144C137.967 203.892 137.619 203.392 137.1 203.025C136.594 202.658 135.961 202.474 135.201 202.474C134.214 202.474 133.417 202.816 132.809 203.5C132.201 204.17 131.898 205.126 131.898 206.367C131.898 207.62 132.201 208.588 132.809 209.272C133.417 209.955 134.214 210.297 135.201 210.297C135.961 210.297 136.594 210.12 137.1 209.765C137.606 209.411 137.955 208.905 138.144 208.246H140.005C139.727 209.31 139.17 210.164 138.334 210.81C137.499 211.443 136.455 211.759 135.201 211.759C134.214 211.759 133.334 211.538 132.562 211.095C131.803 210.652 131.208 210.025 130.777 209.215C130.347 208.405 130.132 207.455 130.132 206.367Z" fill="white"/>
<path d="M127.122 211.588L124.654 207.715L122.28 211.588H120.476L123.837 206.424L120.476 201.183H122.432L124.9 205.038L127.255 201.183H129.059L125.717 206.329L129.078 211.588H127.122Z" fill="white"/>
<path d="M113.685 199.759V204.183H118.507V205.607H113.685V210.164H119.077V211.588H111.957V198.335H119.077V199.759H113.685Z" fill="white"/>
<path d="M101.539 202.873C101.843 202.278 102.273 201.816 102.83 201.487C103.4 201.158 104.09 200.993 104.9 200.993V202.778H104.444C102.508 202.778 101.539 203.829 101.539 205.93V211.588H99.8114V201.183H101.539V202.873Z" fill="white"/>
<path d="M92.2041 211.759C91.2294 211.759 90.3433 211.538 89.5458 211.095C88.761 210.652 88.1408 210.025 87.6851 209.215C87.242 208.392 87.0205 207.443 87.0205 206.367C87.0205 205.303 87.2484 204.367 87.7041 203.557C88.1724 202.734 88.8053 202.107 89.6028 201.677C90.4003 201.234 91.2927 201.012 92.2801 201.012C93.2674 201.012 94.1598 201.234 94.9573 201.677C95.7548 202.107 96.3814 202.727 96.8371 203.538C97.3054 204.348 97.5396 205.291 97.5396 206.367C97.5396 207.443 97.2991 208.392 96.8181 209.215C96.3497 210.025 95.7105 210.652 94.9003 211.095C94.0902 211.538 93.1915 211.759 92.2041 211.759ZM92.2041 210.24C92.8244 210.24 93.4066 210.095 93.951 209.803C94.4953 209.512 94.932 209.076 95.2611 208.493C95.6029 207.911 95.7738 207.202 95.7738 206.367C95.7738 205.531 95.6092 204.822 95.2801 204.24C94.951 203.658 94.5206 203.227 93.9889 202.949C93.4573 202.658 92.8813 202.512 92.2611 202.512C91.6281 202.512 91.0459 202.658 90.5142 202.949C89.9952 203.227 89.5775 203.658 89.261 204.24C88.9446 204.822 88.7863 205.531 88.7863 206.367C88.7863 207.215 88.9383 207.93 89.2421 208.512C89.5585 209.095 89.9762 209.531 90.4952 209.822C91.0142 210.101 91.5838 210.24 92.2041 210.24Z" fill="white"/>
<path d="M85.5792 198.354V199.759H79.826V204.221H84.4969V205.626H79.826V211.588H78.0981V198.354H85.5792Z" fill="white"/>
<path d="M67.6806 202.873C67.9844 202.278 68.4148 201.816 68.9718 201.487C69.5414 201.158 70.2313 200.993 71.0414 200.993V202.778H70.5857C68.649 202.778 67.6806 203.829 67.6806 205.93V211.588H65.9528V201.183H67.6806V202.873Z" fill="white"/>
<path d="M63.672 205.987C63.672 206.316 63.6531 206.664 63.6151 207.031H55.2986C55.3618 208.057 55.7099 208.86 56.3429 209.443C56.9884 210.012 57.7669 210.297 58.6783 210.297C59.4252 210.297 60.0454 210.126 60.5391 209.784C61.0454 209.43 61.3999 208.962 61.6024 208.379H63.4632C63.1847 209.379 62.6277 210.196 61.7923 210.829C60.9568 211.449 59.9188 211.759 58.6783 211.759C57.691 211.759 56.8049 211.538 56.0201 211.095C55.2479 210.652 54.6403 210.025 54.1973 209.215C53.7542 208.392 53.5327 207.443 53.5327 206.367C53.5327 205.291 53.7479 204.348 54.1783 203.538C54.6087 202.727 55.2099 202.107 55.9821 201.677C56.7669 201.234 57.6657 201.012 58.6783 201.012C59.6657 201.012 60.5391 201.227 61.2986 201.658C62.0581 202.088 62.6404 202.683 63.0455 203.443C63.4632 204.189 63.672 205.038 63.672 205.987ZM61.8872 205.626C61.8872 204.968 61.7416 204.405 61.4505 203.936C61.1594 203.455 60.7606 203.095 60.2543 202.854C59.7606 202.601 59.21 202.474 58.6024 202.474C57.729 202.474 56.9821 202.753 56.3619 203.31C55.7543 203.867 55.4061 204.639 55.3175 205.626H61.8872Z" fill="white"/>
<path d="M49.3696 202.607V208.74C49.3696 209.247 49.4771 209.607 49.6923 209.823C49.9075 210.025 50.281 210.126 50.8126 210.126H52.0848V211.588H50.5278C49.5658 211.588 48.8442 211.367 48.3632 210.924C47.8822 210.481 47.6417 209.753 47.6417 208.74V202.607H46.2936V201.183H47.6417V198.563H49.3696V201.183H52.0848V202.607H49.3696Z" fill="white"/>
<path d="M40.1864 200.993C41.4522 200.993 42.4775 201.379 43.2623 202.151C44.0472 202.911 44.4396 204.012 44.4396 205.455V211.588H42.7307V205.702C42.7307 204.664 42.4712 203.873 41.9522 203.329C41.4332 202.772 40.7243 202.493 39.8256 202.493C38.9142 202.493 38.1863 202.778 37.642 203.348C37.1104 203.917 36.8446 204.746 36.8446 205.835V211.588H35.1167V201.183H36.8446V202.664C37.1863 202.132 37.6484 201.721 38.2307 201.43C38.8256 201.139 39.4775 200.993 40.1864 200.993Z" fill="white"/>
<path d="M32.8359 205.987C32.8359 206.316 32.8169 206.664 32.7789 207.031H24.4624C24.5257 208.057 24.8738 208.86 25.5067 209.443C26.1523 210.012 26.9307 210.297 27.8421 210.297C28.589 210.297 29.2092 210.126 29.7029 209.784C30.2093 209.43 30.5637 208.962 30.7662 208.379H32.627C32.3485 209.379 31.7915 210.196 30.9561 210.829C30.1206 211.449 29.0827 211.759 27.8421 211.759C26.8548 211.759 25.9687 211.538 25.1839 211.095C24.4117 210.652 23.8041 210.025 23.3611 209.215C22.9181 208.392 22.6965 207.443 22.6965 206.367C22.6965 205.291 22.9117 204.348 23.3421 203.538C23.7725 202.727 24.3738 202.107 25.1459 201.677C25.9307 201.234 26.8295 201.012 27.8421 201.012C28.8295 201.012 29.7029 201.227 30.4624 201.658C31.2219 202.088 31.8042 202.683 32.2093 203.443C32.627 204.189 32.8359 205.038 32.8359 205.987ZM31.051 205.626C31.051 204.968 30.9055 204.405 30.6143 203.936C30.3232 203.455 29.9244 203.095 29.4181 202.854C28.9244 202.601 28.3738 202.474 27.7662 202.474C26.8928 202.474 26.1459 202.753 25.5257 203.31C24.9181 203.867 24.57 204.639 24.4814 205.626H31.051Z" fill="white"/>
<path d="M8.02954 204.962C8.02954 203.67 8.32068 202.512 8.90297 201.487C9.48525 200.449 10.2764 199.639 11.2764 199.057C12.2891 198.474 13.4093 198.183 14.6372 198.183C16.0802 198.183 17.3397 198.531 18.4157 199.227C19.4917 199.924 20.2765 200.911 20.7702 202.189H18.7005C18.3334 201.392 17.8018 200.778 17.1056 200.348C16.422 199.917 15.5992 199.702 14.6372 199.702C13.7131 199.702 12.884 199.917 12.1498 200.348C11.4156 200.778 10.8397 201.392 10.422 202.189C10.0042 202.974 9.79538 203.898 9.79538 204.962C9.79538 206.012 10.0042 206.936 10.422 207.734C10.8397 208.519 11.4156 209.126 12.1498 209.557C12.884 209.987 13.7131 210.202 14.6372 210.202C15.5992 210.202 16.422 209.993 17.1056 209.576C17.8018 209.145 18.3334 208.531 18.7005 207.734H20.7702C20.2765 209 19.4917 209.981 18.4157 210.677C17.3397 211.36 16.0802 211.702 14.6372 211.702C13.4093 211.702 12.2891 211.417 11.2764 210.848C10.2764 210.265 9.48525 209.462 8.90297 208.436C8.32068 207.411 8.02954 206.253 8.02954 204.962Z" fill="white"/>
<path d="M2.39241 202.664H0.455688L2.27849 198.354H3.51268L2.39241 202.664ZM5.46839 202.664H3.53166L5.35446 198.354H6.58865L5.46839 202.664Z" fill="white"/>
<path d="M148.189 50.8505H63.2694C60.6884 51.2047 58.6843 53.4314 58.6742 56.1238C58.654 58.8262 60.6479 61.0529 63.2491 61.3971H147.905V99.788H63.6236C60.8605 99.9701 58.6742 102.288 58.6641 105.102C58.6439 107.723 60.5163 109.889 62.9961 110.345H148.189C153.847 110.345 158.452 105.739 158.452 100.081V61.1035C158.452 55.4456 153.857 50.8403 148.189 50.8403V50.8505Z" fill="white"/>
<path d="M145.112 69.606V72.2477H68.189C67.8854 71.3469 67.5513 70.4663 67.1465 69.606H145.102H145.112Z" fill="white"/>
<path d="M145.112 79.2817V81.9235H69.454C69.4843 81.4882 69.4945 81.0429 69.4945 80.6077C69.4945 80.1724 69.4945 79.7271 69.4641 79.2919H145.102L145.112 79.2817Z" fill="white"/>
<path d="M145.112 88.9678V91.6095H67.0449C67.4498 90.7593 67.804 89.8787 68.1077 88.9678H145.112Z" fill="white"/>
<path d="M149.676 0H77.0747C74.8682 0.303645 73.1475 2.20649 73.1475 4.51419C73.1374 6.8219 74.8378 8.73486 77.0544 9.02839H149.433V41.8524H77.3884C75.0301 42.0144 73.1576 43.9881 73.1475 46.397C73.1374 48.6339 74.7366 50.4962 76.852 50.8808H149.676C154.514 50.8808 158.452 46.9436 158.452 42.1055V8.77535C158.452 3.93727 154.524 0 149.676 0Z" fill="white"/>
<path d="M147.045 16.0332V18.2903H81.2852C81.0322 17.5211 80.7387 16.762 80.3945 16.0332H147.045Z" fill="white"/>
<path d="M147.044 24.3125V26.5696H82.368C82.3883 26.2052 82.4085 25.8206 82.4085 25.4461C82.4085 25.0716 82.4085 24.6971 82.3883 24.3226H147.055L147.044 24.3125Z" fill="white"/>
<path d="M147.045 32.5815V34.8386H80.3137C80.6579 34.1099 80.9615 33.3609 81.2247 32.5815H147.055H147.045Z" fill="white"/>
<path d="M37.3054 159.691C43.125 155.96 43.5358 148.315 39.6104 143.374C37.1 140.19 33.38 138.296 28.7814 138.296H19.5043C15.305 138.901 13.0685 141.48 13 146.284V185.686H29.1808C33.0377 185.686 36.0159 185.138 38.184 184.054C48.2713 179.045 48.5452 164.085 37.3054 159.691ZM32.296 176.682C29.5231 177.493 24.7875 177.15 21.9348 177.15V146.957C23.635 146.957 27.1496 146.763 29.1123 147.162C31.3488 147.641 33.4485 149.193 33.4485 151.761C33.4485 154.328 31.7596 156.234 29.5231 156.645C22.3456 157.991 21.33 161.517 23.4981 166.595C24.856 164.496 29.3862 164.838 31.2804 165.237C37.7162 166.732 39.1996 174.857 32.296 176.682Z" fill="white"/>
<path d="M93.3559 147.162V138.296H73.8546C69.3929 138.296 66.0723 141.274 66.0723 146.489V185.686H93.3559V176.819H75.0755V166.321H85.9045C91.3932 166.321 93.1505 161.848 93.3559 157.66H75.0755V147.162H93.3559Z" fill="white"/>
<path d="M157.577 183.94L152.214 172.746L135.725 138.262L119.191 172.746L113.816 183.951L112.983 185.686H118.244C120.72 185.686 122.865 184.305 123.961 182.274C124.063 182.091 124.155 181.897 124.234 181.703L135.725 157.729L147.125 181.612L147.501 182.411C147.832 182.993 148.243 183.506 148.722 183.951C149.886 185.024 151.438 185.686 153.15 185.686H158.41L157.577 183.94Z" fill="white"/>
<path d="M169.57 138.296V147.231H180.068V185.686H189.208V147.231H194.617C198.543 147.231 202 143.842 202 138.296H169.57Z" fill="white"/>
</svg>
