<svg width="249" height="57" viewBox="0 0 249 57" fill="none" xmlns="http://www.w3.org/2000/svg">
<path d="M46.1257 26.1996H2.37285C1.04306 26.3821 0.0105126 27.5293 0.00529777 28.9165C-0.00513199 30.3089 1.0222 31.4561 2.36242 31.6335H45.9797V51.4135H2.55537C1.13171 51.5074 0.00529864 52.7016 8.37628e-05 54.1513C-0.010346 55.5019 0.954406 56.6179 2.23205 56.8526H46.1257C49.0408 56.8526 51.4136 54.4798 51.4136 51.5647V31.4822C51.4136 28.5671 49.046 26.1943 46.1257 26.1943V26.1996Z" fill="#B557BF"/>
<path d="M44.5413 35.863V37.2241H4.90823C4.75178 36.76 4.57969 36.3063 4.37109 35.863H44.5361H44.5413Z" fill="#B557BF"/>
<path d="M44.5408 40.8484V42.2095H5.55957C5.57521 41.9852 5.58043 41.7558 5.58043 41.5315C5.58043 41.3073 5.58043 41.0778 5.56478 40.8536H44.5356L44.5408 40.8484Z" fill="#B557BF"/>
<path d="M44.5407 45.8389V47.2H4.31836C4.52695 46.7619 4.70947 46.3082 4.86592 45.8389H44.5407Z" fill="#B557BF"/>
<path d="M46.8926 0H9.48629C8.34944 0.156446 7.46292 1.13684 7.46292 2.32584C7.4577 3.51483 8.3338 4.50044 9.47586 4.65167H46.7674V21.5635H9.64795C8.43288 21.647 7.46813 22.6639 7.46292 23.905C7.4577 25.0575 8.28165 26.017 9.37156 26.2152H46.8926C49.3853 26.2152 51.4139 24.1866 51.4139 21.6939V4.5213C51.4139 2.02859 49.3905 0 46.8926 0Z" fill="#B557BF"/>
<path d="M45.5369 8.26074V9.42366H11.6558C11.5254 9.02733 11.3742 8.63621 11.1969 8.26074H45.5369Z" fill="#B557BF"/>
<path d="M45.5368 12.5264V13.6893H12.2137C12.2242 13.5015 12.2346 13.3034 12.2346 13.1104C12.2346 12.9175 12.2346 12.7245 12.2242 12.5316H45.542L45.5368 12.5264Z" fill="#B557BF"/>
<path d="M45.5368 16.7869V17.9498H11.1552C11.3325 17.5743 11.4889 17.1884 11.6245 16.7869H45.5421H45.5368Z" fill="#B557BF"/>
<path d="M96.7677 23.9804C102.147 20.5314 102.527 13.4646 98.8983 8.89751C96.5779 5.95476 93.1394 4.20386 88.8887 4.20386H80.3136C76.4321 4.76288 74.3648 7.14661 74.3015 11.5871V48.0077H89.2579C92.8229 48.0077 95.5758 47.5014 97.5799 46.4994C106.904 41.869 107.157 28.0412 96.7677 23.9804ZM92.1374 39.6857C89.5743 40.4346 85.1971 40.1181 82.5602 40.1181V12.2094C84.1318 12.2094 87.3804 12.0301 89.1946 12.3993C91.2619 12.8423 93.2027 14.2767 93.2027 16.6499C93.2027 19.0231 91.6416 20.7845 89.5743 21.1643C82.9399 22.4089 82.0012 25.668 84.0052 30.3617C85.2604 28.4209 89.4477 28.7374 91.1986 29.1065C97.1474 30.4883 98.5186 37.9981 92.1374 39.6857Z" fill="#B557BF"/>
<path d="M148.577 12.3993V4.20386H130.552C126.427 4.20386 123.358 6.95677 123.358 11.777V48.0077H148.577V39.8123H131.68V30.1086H141.69C146.763 30.1086 148.387 25.9739 148.577 22.103H131.68V12.3993H148.577Z" fill="#B557BF"/>
<path d="M207.938 46.3938L202.981 36.0467L187.74 4.17212L172.456 36.0467L167.488 46.4044L166.719 48.0076H171.581C173.87 48.0076 175.853 46.7313 176.865 44.8539C176.96 44.6851 177.045 44.5058 177.118 44.3265L187.74 22.1662L198.277 44.2421L198.625 44.9804C198.931 45.5184 199.31 45.993 199.753 46.4044C200.829 47.3958 202.264 48.0076 203.846 48.0076H208.708L207.938 46.3938Z" fill="#B557BF"/>
<path d="M219.024 4.20386V12.4626H228.728V48.0077H237.176V12.4626H242.176C245.804 12.4626 249 9.32995 249 4.20386H219.024Z" fill="#B557BF"/>
</svg>
