<svg width="198" height="522" viewBox="0 0 198 522" fill="none" xmlns="http://www.w3.org/2000/svg">
<path fill-rule="evenodd" clip-rule="evenodd" d="M95.9652 9.20007C86.7147 4.1214 76.5573 1.58203 65.493 1.58203C53.5218 1.58203 42.9109 4.2121 33.6604 9.47217C24.4099 14.7322 17.1546 22.6224 11.8945 33.1425C6.63444 43.6628 4.00439 56.5409 4.00439 71.777L4.00439 147.141H195V100.617L126.437 100.617V71.777C126.437 56.1781 123.626 43.1186 118.003 32.5984C112.38 22.0782 105.034 14.2788 95.9652 9.20007ZM127.437 99.6168V71.777C127.437 56.0626 124.606 42.83 118.885 32.127C113.186 21.4638 105.713 13.5129 96.4539 8.32758L96.4465 8.32355C87.0413 3.15985 76.7171 0.582031 65.493 0.582031C53.3705 0.582031 42.5853 3.24683 33.1661 8.60291C23.7254 13.9711 16.3391 22.0174 11.0001 32.6953C5.65318 43.3892 3.00439 56.4299 3.00439 71.777L3.00439 148.141H196V99.6168L127.437 99.6168ZM83.1778 55.4526C87.3496 59.8058 89.4355 66.4262 89.4355 75.314V100.617H41.5505L41.5505 75.314C41.5505 66.4262 43.6364 59.8058 47.8082 55.4526C51.98 51.0994 57.875 48.9228 65.493 48.9228C73.1111 48.9228 79.006 51.0994 83.1778 55.4526ZM42.5505 99.6168L42.5505 75.314C42.5505 66.5632 44.6059 60.2395 48.5302 56.1445C52.4665 52.037 58.0714 49.9228 65.493 49.9228C72.9146 49.9228 78.5195 52.037 82.4558 56.1445C86.3802 60.2395 88.4355 66.5632 88.4355 75.314V99.6168H42.5505Z" fill="url(#paint0_radial_147_111)"/>
<path fill-rule="evenodd" clip-rule="evenodd" d="M195 311.557L161.263 300.13V228.846L195 217.419V168.174L4.00439 237.281L4.00439 291.151L195 360.258V311.557ZM162.263 229.563L196 218.136V166.749L3.00439 236.579L3.00439 291.853L196 361.683V310.84L162.263 299.413V229.563ZM125.349 240.818L125.349 287.886L55.4263 264.488L125.349 240.818ZM124.349 242.212L58.5612 264.482L124.349 286.497L124.349 242.212Z" fill="url(#paint1_radial_147_111)"/>
<path fill-rule="evenodd" clip-rule="evenodd" d="M170.572 511.032L170.561 511.04C161.488 517.706 150.583 521.205 137.894 521.572L136.865 521.602V470.153L137.763 470.061C144.653 469.354 149.839 466.986 153.443 463.044C156.874 459.092 158.63 453.904 158.63 447.385C158.63 440.64 157.123 435.443 154.222 431.683C151.167 427.955 147.022 426.075 141.674 426.075C137.217 426.075 133.586 427.605 130.701 430.659L130.692 430.669L130.682 430.68C127.704 433.658 125.231 437.444 123.277 442.061L123.275 442.068L123.272 442.074C121.301 446.552 119.048 453.035 116.513 461.546L116.51 461.556C112.692 473.918 108.866 484.038 105.026 491.9C101.143 499.851 95.4145 506.682 87.862 512.392C80.2078 518.179 70.2737 521.029 58.147 521.029C40.0962 521.029 25.916 514.472 15.7318 501.327C5.40421 488.231 0.283691 471.219 0.283691 450.378C0.283691 429.179 5.40184 411.984 15.7315 398.885C25.9058 385.752 40.156 378.744 58.3687 377.824L59.4191 377.771V430.099L58.4778 430.154C52.545 430.503 48.0137 432.669 44.7702 436.595L44.7621 436.605L44.7538 436.614C41.3122 440.572 39.5577 445.676 39.5577 452.01C39.5577 457.443 41.0425 461.722 43.9282 464.947L43.9382 464.958L43.9479 464.97C46.6141 468.136 50.563 469.783 55.9705 469.783C61.746 469.783 66.2438 467.102 69.5305 461.567C72.9184 455.861 76.6096 446.877 80.5939 434.562L80.598 434.549C84.7767 422.195 88.7832 412.173 92.6196 404.5C96.4996 396.556 102.132 389.728 109.501 384.018C116.97 378.229 126.543 375.374 138.137 375.374C149.199 375.374 159.269 378.234 168.32 383.959C177.385 389.51 184.577 397.64 189.909 408.303C195.252 418.99 197.905 431.574 197.905 446.025C197.905 460.1 195.619 472.747 191.028 483.95C186.431 495.168 179.613 504.205 170.572 511.032ZM167.793 384.808C158.905 379.185 149.02 376.374 138.137 376.374C126.71 376.374 117.368 379.185 110.113 384.808C102.858 390.431 97.3256 397.142 93.5166 404.942C89.7076 412.56 85.7172 422.536 81.5454 434.87C77.555 447.204 73.8366 456.273 70.3904 462.077C66.9441 467.881 62.1375 470.783 55.9705 470.783C50.3476 470.783 46.0851 469.06 43.183 465.614C40.0995 462.168 38.5577 457.633 38.5577 452.01C38.5577 445.481 40.3716 440.13 43.9992 435.958C47.4455 431.786 52.2521 429.519 58.4191 429.156V378.823C58.0844 378.84 57.7511 378.858 57.4191 378.88C39.943 379.989 26.3099 386.862 16.5198 399.5C6.36239 412.378 1.28369 429.338 1.28369 450.378C1.28369 471.056 6.36239 487.833 16.5198 500.712C26.4958 513.59 40.3716 520.029 58.147 520.029C70.1183 520.029 79.8222 517.217 87.2589 511.594C94.6956 505.972 100.318 499.26 104.127 491.461C107.936 483.662 111.746 473.595 115.555 461.261C118.094 452.736 120.361 446.206 122.356 441.672C124.352 436.956 126.891 433.056 129.974 429.972C133.058 426.708 136.958 425.075 141.674 425.075C147.296 425.075 151.74 427.07 155.005 431.061C158.089 435.051 159.63 440.493 159.63 447.385C159.63 454.096 157.817 459.538 154.189 463.71C150.38 467.881 144.938 470.33 137.865 471.056V520.573C138.199 520.563 138.533 520.551 138.865 520.537C150.951 520.024 161.319 516.589 169.969 510.234C178.857 503.523 185.568 494.635 190.103 483.571C194.637 472.507 196.905 459.991 196.905 446.025C196.905 431.696 194.274 419.271 189.014 408.751C183.754 398.231 176.68 390.25 167.793 384.808Z" fill="url(#paint2_radial_147_111)"/>
<defs>
<radialGradient id="paint0_radial_147_111" cx="0" cy="0" r="1" gradientUnits="userSpaceOnUse" gradientTransform="translate(100.5 263) rotate(90) scale(269 146.5)">
<stop offset="0.132303" stop-color="#B557BF"/>
<stop offset="1" stop-color="#666666"/>
</radialGradient>
<radialGradient id="paint1_radial_147_111" cx="0" cy="0" r="1" gradientUnits="userSpaceOnUse" gradientTransform="translate(100.5 263) rotate(90) scale(269 146.5)">
<stop offset="0.132303" stop-color="#B557BF"/>
<stop offset="1" stop-color="#666666"/>
</radialGradient>
<radialGradient id="paint2_radial_147_111" cx="0" cy="0" r="1" gradientUnits="userSpaceOnUse" gradientTransform="translate(100.5 263) rotate(90) scale(269 146.5)">
<stop offset="0.132303" stop-color="#B557BF"/>
<stop offset="1" stop-color="#666666"/>
</radialGradient>
</defs>
</svg>
